<svg xmlns="http://www.w3.org/2000/svg" viewBox="0 0 1600 900"><defs><linearGradient id="bg" x1="0" y1="0" x2="1" y2="1"><stop stop-color="#051728"/><stop offset="1" stop-color="#0b425c"/></linearGradient></defs><rect width="1600" height="900" fill="url(#bg)"/><g opacity=".12"><circle cx="250" cy="160" r="180" fill="#63b9ff"/><circle cx="1400" cy="140" r="220" fill="#2cd6bb"/></g><g stroke="#b9fcff" stroke-opacity=".55" fill="none"><path d="M160 650 L160 320 L620 320" stroke-width="6"/><path d="M170 615 C280 560 340 570 420 505 C510 432 590 408 730 370 C840 340 960 260 1140 300 C1270 330 1360 410 1470 380" stroke-width="7"/><path d="M220 560 C360 540 430 455 520 430 C675 386 805 470 950 442 C1100 413 1270 260 1440 275" stroke-width="4" opacity=".52"/></g><g fill="#7ce8ff"><circle cx="420" cy="505" r="12"/><circle cx="730" cy="370" r="12"/><circle cx="950" cy="300" r="12"/><circle cx="1210" cy="330" r="12"/><circle cx="1470" cy="380" r="12"/></g><g fill="#34cfaf" opacity=".8"><rect x="250" y="630" width="90" height="110" rx="18"/><rect x="380" y="560" width="90" height="180" rx="18"/><rect x="510" y="470" width="90" height="270" rx="18"/><rect x="640" y="520" width="90" height="220" rx="18"/></g></svg>